# xmcd
#
# Track frame offsets:
#	150
#	12978
#	22454
#	37283
#	51978
#	65984
#	77655
#	89628
#	104960
#	119258
#	135158
#	148760
#	162367
#	173052
#	183995
#
# Disc length: 2614 seconds
#
# Revision: 1
# Processed by: cddbd v1.4PL0 Copyright (c) Steve Scherf et al.
# Submitted via: audiograbber 1.82.02
#
DISCID=e40a340f
DTITLE=Melissa Gibson - Lighthouse Point
DYEAR=1999
DGENRE=Country - Folk
TTITLE0=Ocean View
TTITLE1=City Lights
TTITLE2=Blue Streak
TTITLE3=Just Breathe
TTITLE4=Coney Island Getaway
TTITLE5=Let Her Go
TTITLE6=Falling Away
TTITLE7=Two Blue Oceans
TTITLE8=Lie To Me Tonight
TTITLE9=Dance With Fireflies
TTITLE10=Leave It All To Me
TTITLE11=Man In The Moon
TTITLE12=Element Of Doubt
TTITLE13=I've Been Here
TTITLE14=Stargazer
EXTD=
EXTT0=
EXTT1=
EXTT2=
EXTT3=
EXTT4=
EXTT5=
EXTT6=
EXTT7=
EXTT8=
EXTT9=
EXTT10=
EXTT11=
EXTT12=
EXTT13=
EXTT14=
PLAYORDER=
